<svg width="32" height="32" viewBox="0 0 32 32" fill="none" xmlns="http://www.w3.org/2000/svg">
  <path d="M18.8 5L19.6 7.7C20.1 7.9 20.6 8.1 21 8.4L23.7 7.6L25.6 11.1L23.6 12.9C23.7 13.3 23.8 13.7 23.8 14.1C23.8 14.5 23.7 14.9 23.6 15.3L25.6 17.1L23.7 20.6L21 19.8C20.6 20.1 20.1 20.3 19.6 20.5L18.8 23.2H13.2L12.4 20.5C11.9 20.3 11.4 20.1 11 19.8L8.3 20.6L6.4 17.1L8.4 15.3C8.3 14.9 8.2 14.5 8.2 14.1C8.2 13.7 8.3 13.3 8.4 12.9L6.4 11.1L8.3 7.6L11 8.4C11.4 8.1 11.9 7.9 12.4 7.7L13.2 5H18.8Z" stroke="white" stroke-width="2" stroke-linejoin="round"/>
  <circle cx="16" cy="14.1" r="3.2" stroke="white" stroke-width="2"/>
</svg>
